<svg xmlns="http://www.w3.org/2000/svg" width="64" height="64" viewBox="0 0 64 64"><defs><linearGradient id="a" x1="-1046.497" y1="117.876" x2="-1064.781" y2="63.862" gradientTransform="matrix(1 0 0 -1 1075 126)" gradientUnits="userSpaceOnUse"><stop offset="0" stop-color="#114a8b"/><stop offset="1" stop-color="#0669bc"/></linearGradient><linearGradient id="b" x1="-1040.785" y1="92.704" x2="-1045.015" y2="91.274" gradientTransform="matrix(1 0 0 -1 1075 126)" gradientUnits="userSpaceOnUse"><stop offset="0" stop-opacity=".3"/><stop offset=".071" stop-opacity=".2"/><stop offset=".321" stop-opacity=".1"/><stop offset=".623" stop-opacity=".05"/><stop offset="1" stop-opacity="0"/></linearGradient><linearGradient id="c" x1="-1043.111" y1="119.451" x2="-1023.042" y2="65.981" gradientTransform="matrix(1 0 0 -1 1075 126)" gradientUnits="userSpaceOnUse"><stop offset="0" stop-color="#3ccbf4"/><stop offset="1" stop-color="#2892df"/></linearGradient></defs><path d="M22.086 3.97h17.606L21.416 58.12a2.807 2.807 0 0 1-2.66 1.91h-13.7a2.803 2.803 0 0 1-2.657-3.7L19.426 5.88a2.807 2.807 0 0 1 2.66-1.91Z" fill="url(#a)"/><path d="M47.67 40.29H19.75a1.292 1.292 0 0 0-.882 2.237l17.94 16.744a2.82 2.82 0 0 0 1.924.758H54.54Z" fill="#0078d4"/><path d="M22.086 3.97a2.784 2.784 0 0 0-2.665 1.946l-17 50.368a2.8 2.8 0 0 0 2.642 3.745h14.055a3.004 3.004 0 0 0 2.306-1.961l3.39-9.99 12.11 11.294a2.865 2.865 0 0 0 1.802.658h15.75l-6.909-19.74-20.136.004L39.756 3.97Z" fill="url(#b)"/><path d="M44.573 5.877a2.803 2.803 0 0 0-2.656-1.907h-19.62a2.803 2.803 0 0 1 2.655 1.907L41.98 56.33a2.803 2.803 0 0 1-2.656 3.7h19.621a2.803 2.803 0 0 0 2.656-3.7Z" fill="url(#c)"/></svg>