<svg width="72" height="72" viewBox="0 0 72 72" fill="none" xmlns="http://www.w3.org/2000/svg">
<path d="M24.7351 59.3458C30.7351 58.3958 30.025 54.0459 30.025 47.0059H42.025C42.025 54.0059 41.225 58.3958 47.285 59.3458C48.1163 59.4471 48.8832 59.8447 49.445 60.4658C50.0059 61.096 50.3124 61.9123 50.305 62.7559H21.695C21.6877 61.9123 21.9942 61.096 22.555 60.4658C23.1193 59.8426 23.8902 59.4448 24.725 59.3458H24.7351Z" fill="url(#paint0_linear_4732_558)" stroke="white" stroke-width="0.5" stroke-linejoin="round"/>
<path d="M2.68958 10.2734C2.68958 9.0308 3.69693 8.02344 4.93958 8.02344H67.0605C68.3031 8.02344 69.3105 9.0308 69.3105 10.2734V50.1563C69.3105 51.3989 68.3031 52.4062 67.0605 52.4062H4.93957C3.69693 52.4062 2.68958 51.3989 2.68958 50.1563V10.2734Z" fill="url(#paint1_linear_4732_558)" stroke="white" stroke-width="0.5" stroke-linejoin="round"/>
<path d="M2.68958 46.0234H69.3105V50.1562C69.3105 51.3989 68.3031 52.4062 67.0605 52.4062H4.93957C3.69693 52.4062 2.68958 51.3989 2.68958 50.1563V46.0234Z" fill="url(#paint2_linear_4732_558)" stroke="white" stroke-width="0.5"/>
<circle cx="36" cy="27.4589" r="13.4022" fill="white"/>
<path d="M40.6935 23.5933C41.27 23.0692 42.1624 23.1121 42.6865 23.6884C43.2106 24.2649 43.1679 25.1573 42.5914 25.6814L34.8322 32.7352C34.2754 33.2409 33.4193 33.2217 32.8868 32.6904L29.3753 29.1859C28.8237 28.6356 28.8222 27.7417 29.3725 27.1901C29.9228 26.6386 30.8167 26.6384 31.3683 27.1887L33.9281 29.7429L40.6935 23.5933Z" fill="url(#paint3_linear_4732_558)"/>
<defs>
<linearGradient id="paint0_linear_4732_558" x1="35.0228" y1="67.9031" x2="36.015" y2="47.0059" gradientUnits="userSpaceOnUse">
<stop offset="0.15" stop-color="#CCCCCC"/>
<stop offset="1" stop-color="#707070"/>
</linearGradient>
<linearGradient id="paint1_linear_4732_558" x1="11.5525" y1="141.52" x2="-25.1788" y2="8.46957" gradientUnits="userSpaceOnUse">
<stop stop-color="#0078D4"/>
<stop offset="0.897238" stop-color="#C73ECC"/>
</linearGradient>
<linearGradient id="paint2_linear_4732_558" x1="35.8253" y1="34.188" x2="36" y2="52.4062" gradientUnits="userSpaceOnUse">
<stop stop-color="#898A8E"/>
<stop offset="1" stop-color="#AAACB2"/>
</linearGradient>
<linearGradient id="paint3_linear_4732_558" x1="83.3291" y1="63.7366" x2="8.95086" y2="33.0239" gradientUnits="userSpaceOnUse">
<stop stop-color="#0078D4"/>
<stop offset="0.897238" stop-color="#C73ECC"/>
</linearGradient>
</defs>
</svg>
